<svg width="557" height="371" viewBox="0 0 557 371" fill="none" xmlns="http://www.w3.org/2000/svg">
<path d="M438.415 227.859H436.527V231.634H438.415V227.859Z" fill="white"/>
<path d="M438.415 282.338H436.527V273.909H438.415V282.338ZM438.415 265.416H436.527V256.986H438.415V265.416ZM438.415 248.556H436.527V240.126H438.415V248.556Z" fill="#57586B"/>
<path d="M438.414 295.487H433.695V293.6H436.526V290.769H438.414V295.487Z" fill="white"/>
<path d="M426.466 295.487H419.231V293.6H426.466V295.487ZM411.934 295.487H404.699V293.6H411.934V295.487ZM397.464 295.487H390.23V293.6H397.464V295.487ZM382.932 295.487H375.698V293.6H382.932V295.487ZM368.463 295.487H361.229V293.6H368.463V295.487ZM353.931 295.487H346.697V293.6H353.931V295.487ZM339.462 295.487H332.227V293.6H339.462V295.487ZM324.93 295.487H317.695V293.6H324.93V295.487Z" fill="#57586B"/>
<path d="M307.563 298.317H305.676C305.676 295.711 307.788 293.599 310.394 293.599V295.486C308.831 295.486 307.563 296.754 307.563 298.317Z" fill="#57586B"/>
<path d="M307.563 321.972H305.676V316.058H307.563V321.972ZM307.563 310.145H305.676V304.231H307.563V310.145Z" fill="#57586B"/>
<path d="M307.562 332.603H302.844V330.716H305.675V327.885H307.562V332.603Z" fill="white"/>
<path d="M295.045 332.603H287.182V330.715H295.045V332.603ZM279.381 332.603H271.517V330.715H279.381V332.603ZM263.716 332.603H255.853V330.715H263.716V332.603ZM248.052 332.603H240.188V330.715H248.052V332.603ZM232.325 332.603H224.461V330.715H232.325V332.603Z" fill="#57586B"/>
<path d="M216.665 330.717H212.891V332.605H216.665V330.717Z" fill="white"/>
<path d="M436.214 303.349C441.078 303.349 445.021 299.406 445.021 294.541C445.021 289.677 441.078 285.734 436.214 285.734C431.349 285.734 427.406 289.677 427.406 294.541C427.406 299.406 431.349 303.349 436.214 303.349Z" fill="#62A824"/>
<path d="M305.676 336.691C308.976 336.691 311.652 334.015 311.652 330.715C311.652 327.414 308.976 324.738 305.676 324.738C302.375 324.738 299.699 327.414 299.699 330.715C299.699 334.015 302.375 336.691 305.676 336.691Z" fill="#E6A736"/>
<path d="M480.566 340.466H430.238C426.937 340.466 424.262 343.142 424.262 346.443C424.262 349.743 426.937 352.419 430.238 352.419H480.566C483.866 352.419 486.542 349.743 486.542 346.443C486.542 343.142 483.866 340.466 480.566 340.466Z" fill="#91C557"/>
<path d="M147.773 39.7595H97.4451C94.1445 39.7595 91.4688 42.4352 91.4688 45.7359C91.4688 49.0366 94.1445 51.7123 97.4451 51.7123H147.773C151.073 51.7123 153.749 49.0366 153.749 45.7359C153.749 42.4352 151.073 39.7595 147.773 39.7595Z" fill="#62A824"/>
<path d="M158.785 339.208L172.625 341.096H186.465L204.709 355.565L155.262 351.476L158.785 339.208Z" fill="white"/>
<path d="M111.602 256.168L119.717 226.034L132.11 203.01L155.701 212.131C155.701 212.131 157.966 251.827 137.332 241.888L137.206 260.32L111.602 256.168Z" fill="#EBEBF2"/>
<path d="M165.643 214.208C167.907 209.742 160.17 206.911 160.17 206.911C162.686 207.036 163.755 205.904 163.944 204.835C164.825 198.544 152.243 199.487 152.243 199.487C154.445 197.223 151.928 196.216 151.928 196.216C147.776 194.58 139.347 195.524 133.37 196.468C131.546 196.027 108.647 191.309 118.146 229.306C118.146 229.306 124.374 233.458 128.589 221.443C128.589 221.443 126.765 214.397 132.489 214.837C133.559 214.9 134.565 215.655 134.88 216.725C135.761 219.304 135.635 221.002 135.635 221.002L137.963 221.694L139.787 215.529C149.79 217.857 162.812 219.618 165.643 214.208Z" fill="#25383F"/>
<path d="M172.624 339.208L152.493 314.044L152.933 331.659L168.22 334.804L165.075 352.419L153.122 351.161L153.248 357.452H73.7931L76.8127 339.9C58.8206 336.692 71.5913 277.997 71.5913 277.997C74.4222 257.866 84.299 253.463 84.299 253.463C94.679 248.996 114.433 242.705 114.433 242.705C135.57 258.621 137.395 246.291 137.395 246.291L149.725 252.645C153.311 254.909 156.33 257.992 158.532 261.641L185.331 318.385L172.624 339.208Z" fill="#E6A736"/>
<path d="M166.141 353.803L165.008 353.677C162.114 353.426 93.8576 346.82 76.1172 340.907L76.935 338.516C93.1027 343.926 154.88 350.154 164.065 351.035L166.77 335.748L92.8511 317.001L94.8642 294.731L97.3806 294.983L95.6191 315.114L169.726 333.924L166.141 353.803Z" fill="#25383F"/>
<path d="M151.851 283.156L149.34 283.31L151.227 314.139L153.739 313.986L151.851 283.156Z" fill="#25383F"/>
<path d="M185.704 350.847H111.533C109.709 350.847 108.199 352.357 108.199 354.181C108.199 356.005 109.709 357.515 111.533 357.515H185.704V350.847Z" fill="#0F122E"/>
<path d="M247.61 306.18H172.433C171.489 306.18 170.672 306.747 170.231 307.564L146.703 357.514H227.227L249.749 309.64C250.567 308.005 249.434 306.18 247.61 306.18Z" fill="#0F122E"/>
<path d="M205.881 333.401C207.113 330.489 206.296 327.36 204.056 326.412C201.816 325.465 199.001 327.057 197.769 329.969C196.538 332.881 197.355 336.01 199.595 336.957C201.835 337.905 204.649 336.312 205.881 333.401Z" fill="white"/>
<path d="M317.945 357.452H58.7578V370.034H317.945V357.452Z" fill="#62A824"/>
<path d="M107.821 357.452H13.457V370.034H107.821V357.452Z" fill="#25383F"/>
<path d="M83.9197 179.356H12.832V214.145H63.0967L74.8607 224.713V214.145H83.9197V179.356Z" fill="#FFA205"/>
<path d="M32.2752 201.058C34.0819 201.058 35.5465 199.594 35.5465 197.787C35.5465 195.98 34.0819 194.516 32.2752 194.516C30.4685 194.516 29.0039 195.98 29.0039 197.787C29.0039 199.594 30.4685 201.058 32.2752 201.058Z" fill="white"/>
<path d="M48.3807 201.058C50.1873 201.058 51.652 199.594 51.652 197.787C51.652 195.98 50.1873 194.516 48.3807 194.516C46.574 194.516 45.1094 195.98 45.1094 197.787C45.1094 199.594 46.574 201.058 48.3807 201.058Z" fill="white"/>
<path d="M64.5486 201.059C66.3553 201.059 67.8199 199.595 67.8199 197.788C67.8199 195.981 66.3553 194.517 64.5486 194.517C62.7419 194.517 61.2773 195.981 61.2773 197.788C61.2773 199.595 62.7419 201.059 64.5486 201.059Z" fill="white"/>
<path d="M13.211 192.943C20.5072 192.943 26.422 187.028 26.422 179.732C26.422 172.436 20.5072 166.521 13.211 166.521C5.91476 166.521 0 172.436 0 179.732C0 187.028 5.91476 192.943 13.211 192.943Z" fill="#4C941E"/>
<path d="M10.379 186.148L5.34621 181.116C4.84293 180.612 4.84293 179.858 5.34621 179.354C5.84948 178.851 6.60439 178.851 7.10767 179.354L10.379 182.626L19.3121 173.692C19.8154 173.189 20.5703 173.189 21.0736 173.692C21.5768 174.196 21.5768 174.951 21.0736 175.454L10.379 186.148Z" fill="white"/>
<path d="M225.03 129.091C206.283 129.091 191.059 140.918 191.059 155.513C191.059 162.684 194.707 169.164 200.684 173.945L194.204 192L210.498 179.418C214.901 181.054 219.871 181.934 225.03 181.934C243.777 181.934 259.001 170.108 259.001 155.513C259.001 140.918 243.777 129.091 225.03 129.091Z" fill="#62A824"/>
<path d="M225.97 147.65H207.098V149.537H225.97V147.65Z" fill="white"/>
<path d="M242.956 155.513H207.098V157.401H242.956V155.513Z" fill="white"/>
<path d="M242.956 163.691H207.098V165.578H242.956V163.691Z" fill="white"/>
<path d="M248.113 148.404C255.41 148.404 261.324 142.49 261.324 135.193C261.324 127.897 255.41 121.982 248.113 121.982C240.817 121.982 234.902 127.897 234.902 135.193C234.902 142.49 240.817 148.404 248.113 148.404Z" fill="#FFD34D"/>
<path d="M245.057 140.001V138.669L248.592 135.203C248.93 134.862 249.212 134.559 249.437 134.294C249.663 134.028 249.832 133.772 249.944 133.523C250.057 133.274 250.113 133.009 250.113 132.728C250.113 132.406 250.04 132.131 249.895 131.902C249.749 131.67 249.548 131.491 249.293 131.365C249.038 131.239 248.748 131.176 248.423 131.176C248.088 131.176 247.795 131.246 247.543 131.385C247.291 131.521 247.096 131.715 246.956 131.967C246.82 132.219 246.752 132.519 246.752 132.867H244.998C244.998 132.22 245.145 131.659 245.44 131.181C245.735 130.704 246.141 130.335 246.658 130.073C247.178 129.811 247.775 129.68 248.448 129.68C249.131 129.68 249.73 129.808 250.248 130.063C250.765 130.318 251.166 130.668 251.451 131.112C251.739 131.556 251.883 132.063 251.883 132.633C251.883 133.014 251.81 133.389 251.664 133.757C251.519 134.125 251.262 134.532 250.894 134.98C250.529 135.427 250.017 135.969 249.358 136.605L247.603 138.39V138.46H252.037V140.001H245.057Z" fill="white"/>
<path d="M70.0189 163.817L68.3203 162.936C69.5156 160.671 70.7109 158.406 71.9691 156.267L73.6047 157.211C72.3465 159.35 71.1512 161.552 70.0189 163.817ZM77.5051 150.857L75.9324 149.851C77.3164 147.712 78.7633 145.573 80.2731 143.623L81.7829 144.755C80.336 146.642 78.8891 148.718 77.5051 150.857ZM86.3753 138.779L84.9284 137.583C86.564 135.633 88.2626 133.683 90.0241 131.921L91.4081 133.243C89.7095 135.004 88.011 136.891 86.3753 138.779ZM96.7554 128.084L95.4972 126.7C97.4474 125.001 99.3976 123.366 101.411 121.919L102.543 123.429C100.593 124.813 98.6427 126.385 96.7554 128.084ZM197.977 121.101C197.977 121.101 196.781 120.346 194.642 119.277L195.523 117.578C196.907 118.27 198.983 119.402 199.172 119.591L198.48 120.283L197.977 121.101ZM108.771 119.214L107.765 117.578C109.966 116.257 112.168 114.999 114.496 113.929L115.314 115.628C113.112 116.697 110.91 117.893 108.771 119.214ZM187.785 116.194C185.521 115.25 183.13 114.37 180.802 113.552L181.431 111.79C183.822 112.608 186.213 113.489 188.54 114.496L187.785 116.194ZM122.171 112.734L121.542 110.973C123.932 110.092 126.386 109.337 128.839 108.708L129.28 110.532C126.889 111.161 124.498 111.916 122.171 112.734ZM173.568 111.35C171.114 110.721 168.661 110.155 166.27 109.714L166.648 107.89C169.101 108.33 171.618 108.897 174.071 109.589L173.568 111.35ZM136.577 109.022L136.262 107.135C138.716 106.758 141.295 106.443 143.875 106.317L144 108.205C141.484 108.393 138.968 108.645 136.577 109.022ZM158.91 108.645C156.394 108.393 153.877 108.205 151.487 108.142L151.549 106.254C154.066 106.317 156.582 106.506 159.162 106.758L158.91 108.645Z" fill="#57586B"/>
<path d="M64.6702 168.912L63.7266 156.456L65.6138 156.331L66.3688 166.648L76.7488 164.823L77.1263 166.711L64.6702 168.912Z" fill="#57586B"/>
<path d="M33.8507 340.278L30.2649 319.707C29.8874 317.442 31.3973 315.303 33.5991 314.926C35.8638 314.548 38.0028 316.058 38.3802 318.26L41.9661 338.831L33.8507 340.278Z" fill="#2D7341"/>
<path d="M39.4453 336.315V314.045C39.4453 311.591 41.3955 309.641 43.849 309.641C46.3024 309.641 48.2526 311.591 48.2526 314.045V336.315H39.4453Z" fill="#62A824"/>
<path d="M34.7398 318.286L33.5 318.5L38.2658 342.889L39.5057 342.674L34.7398 318.286Z" fill="white"/>
<path d="M44.4808 312.641H43.2227V339.315H44.4808V312.641Z" fill="white"/>
<path d="M31.5208 333.61H49.7645C51.1486 333.61 52.218 334.742 52.0922 336.126L50.7082 355.251C50.6453 356.446 49.5758 357.453 48.3805 357.453H32.9048C31.6466 357.453 30.6401 356.509 30.5772 355.251L29.1932 336.126C29.0673 334.805 30.1997 333.61 31.5208 333.61Z" fill="#E6A736"/>
<path d="M550.082 133.494C550.082 167.968 532.531 198.29 505.92 216.157C504.347 217.163 502.775 218.17 501.202 219.113C486.418 227.858 469.118 232.89 450.686 232.89C440.557 232.89 430.743 231.381 421.558 228.55C421.181 228.424 420.804 228.298 420.489 228.235C380.353 215.465 351.352 177.845 351.352 133.494C351.352 78.5736 395.829 34.0967 450.748 34.0967C505.668 34.0967 550.082 78.6366 550.082 133.494Z" fill="#62A824"/>
<path d="M445.021 171.869L430.552 178.16L408.534 145.447L402.998 139.407C402.054 138.401 400.733 137.835 399.412 137.898C394.694 138.023 383.622 139.093 380.225 145.447C375.821 153.625 390.29 148.592 390.29 148.592L424.261 207.098L454.458 198.291L445.021 171.869Z" fill="white"/>
<path d="M413.881 17.0483H342.793V51.8372H392.995L404.759 62.406V51.8372H413.881V17.0483Z" fill="#FFA205"/>
<path d="M448.358 131.104L440.872 109.967C440.872 109.967 422.754 118.333 425.333 83.0413L454.838 81.5315L458.298 100.971L469.118 122.423L448.358 131.104Z" fill="white"/>
<path d="M443.885 89.71C443.885 89.71 444.64 84.174 448.666 86.25C450.365 87.1307 451.749 90.6537 447.723 93.8621C447.723 93.8621 449.862 102.292 458.354 100.153C458.354 100.153 465.023 86.1242 457.348 75.6183C457.348 75.6183 472.761 74.1714 470.559 60.4571C469.867 56.368 464.834 49.8884 456.09 52.216C451.749 53.3484 444.829 58.1295 448.226 68.3208C448.226 68.3208 425.83 64.9237 424.32 86.25C424.32 86.1871 434.952 92.478 443.885 89.71Z" fill="#25383F"/>
<path d="M519.063 162.432C519.063 162.432 512.898 174.511 488.741 171.554L486.539 164.382C486.602 164.382 508.809 150.983 519.063 162.432Z" fill="#25383F"/>
<path d="M490.253 167.717L505.162 204.582L505.917 216.158C504.344 217.164 502.772 218.171 501.199 219.114C486.415 227.859 469.115 232.891 450.683 232.891C440.554 232.891 430.74 231.382 421.556 228.551L424.261 162.433L414.195 159.917C414.195 159.917 414.824 146.706 422.374 134.501C427.218 126.637 432.439 122.171 442.63 114.873C442.63 114.873 447.915 125.379 463.202 109.526L490.316 118.711C497.299 121.101 502.017 126.575 506.043 133.683L519.065 162.496C519.065 162.496 510.258 161.489 503.778 163.062C490.567 166.27 490.253 167.717 490.253 167.717Z" fill="#2D7341"/>
<path d="M389.281 190.237L372.862 150.352C371.855 147.962 373.617 145.32 376.196 145.32H436.652C438.099 145.32 439.42 146.2 439.986 147.584L456.405 187.406C457.412 189.797 455.651 192.439 453.071 192.439H392.615C391.168 192.439 389.847 191.558 389.281 190.237Z" fill="#25383F"/>
<path d="M453.072 194.011H392.616C390.477 194.011 388.59 192.753 387.835 190.803L371.416 150.981C370.724 149.346 370.912 147.584 371.919 146.137C372.863 144.69 374.498 143.81 376.26 143.81H436.716C438.854 143.81 440.742 145.068 441.497 147.018L457.916 186.84C458.608 188.475 458.419 190.237 457.413 191.684C456.406 193.131 454.771 194.011 453.072 194.011ZM376.197 146.955C375.505 146.955 374.876 147.27 374.498 147.836C374.121 148.402 374.058 149.094 374.309 149.786L390.729 189.608C391.043 190.363 391.798 190.866 392.616 190.866H453.072C453.764 190.866 454.393 190.551 454.771 189.985C455.148 189.419 455.211 188.727 454.959 188.035L438.54 148.213C438.225 147.458 437.47 146.955 436.653 146.955H376.197Z" fill="#25383F"/>
<path d="M385.765 190.237L369.346 150.352C368.34 147.962 370.101 145.32 372.68 145.32H433.136C434.583 145.32 435.904 146.2 436.47 147.584L452.89 187.406C453.896 189.797 452.135 192.439 449.556 192.439H389.1C387.653 192.439 386.332 191.558 385.765 190.237Z" fill="#FFA205"/>
<path d="M449.553 194.012H389.097C386.958 194.012 385.07 192.754 384.315 190.803L367.896 150.982C367.204 149.346 367.393 147.585 368.399 146.138C369.343 144.691 370.979 143.81 372.74 143.81H433.196C435.335 143.81 437.222 145.068 437.977 147.018L454.334 186.84C455.026 188.476 454.837 190.237 453.83 191.684C452.887 193.194 451.251 194.012 449.553 194.012ZM387.209 189.608C387.524 190.363 388.279 190.866 389.097 190.866H449.553C450.245 190.866 450.874 190.552 451.251 189.986C451.628 189.419 451.691 188.727 451.44 188.035L435.02 148.214C434.706 147.459 433.951 146.956 433.133 146.956H372.677C371.985 146.956 371.356 147.27 370.979 147.836C370.601 148.402 370.538 149.094 370.79 149.786L387.209 189.608Z" fill="#25383F"/>
<path d="M489.062 167.715L493.528 182.814L453.769 174.195L447.667 165.01C446.472 163.249 443.767 163.689 443.264 165.702C442.949 167.086 442.949 168.722 443.767 170.672L435.966 167.401C433.827 166.52 431.311 167.59 430.556 169.791C429.801 171.993 429.423 175.453 430.807 178.347C433.764 184.26 447.29 187.154 447.29 187.154L506.173 206.405C514.037 208.921 520.265 203.637 518.944 193.634L514.1 161.802C514.1 161.802 508.186 161.55 501.895 162.934C493.906 164.759 489.062 167.715 489.062 167.715Z" fill="white"/>
<path d="M411.171 171.542C412.822 170.899 413.342 168.278 412.333 165.688C411.324 163.098 409.168 161.52 407.517 162.163C405.866 162.806 405.345 165.427 406.354 168.017C407.363 170.607 409.52 172.185 411.171 171.542Z" fill="white"/>
<path d="M485.577 155.523L483.211 156.38L487.585 168.445L489.95 167.588L485.577 155.523Z" fill="#25383F"/>
<path d="M523.276 43.1555C506.479 43.1555 492.828 53.7872 492.828 66.8724C492.828 73.2891 496.099 79.0768 501.447 83.3546L498.5 94.5002L510.254 88.2616C514.217 89.7085 518.621 90.5263 523.276 90.5263C540.073 90.5263 553.724 79.8946 553.724 66.8095C553.787 53.7243 540.136 43.1555 523.276 43.1555Z" fill="#FFD34D"/>
<path d="M379.466 24.9766H355.875V26.8638H379.466V24.9766Z" fill="white"/>
<path d="M400.729 32.8396H355.875V34.7269H400.729V32.8396Z" fill="white"/>
<path d="M400.729 41.0186H355.875V42.9058H400.729V41.0186Z" fill="white"/>
<path d="M402.211 26.422C409.507 26.422 415.422 20.5072 415.422 13.211C415.422 5.91476 409.507 0 402.211 0C394.915 0 389 5.91476 389 13.211C389 20.5072 394.915 26.422 402.211 26.422Z" fill="#4C941E"/>
<path d="M403.183 7.81818V18H401.338V9.61293H401.279L398.897 11.1342V9.44389L401.428 7.81818H403.183Z" fill="white"/>
<path d="M510.261 69.8285C511.894 69.8285 513.218 68.5047 513.218 66.8718C513.218 65.2388 511.894 63.915 510.261 63.915C508.628 63.915 507.305 65.2388 507.305 66.8718C507.305 68.5047 508.628 69.8285 510.261 69.8285Z" fill="white"/>
<path d="M524.726 69.8285C526.359 69.8285 527.683 68.5047 527.683 66.8718C527.683 65.2388 526.359 63.915 524.726 63.915C523.093 63.915 521.77 65.2388 521.77 66.8718C521.77 68.5047 523.093 69.8285 524.726 69.8285Z" fill="white"/>
<path d="M539.199 69.8285C540.832 69.8285 542.156 68.5047 542.156 66.8718C542.156 65.2388 540.832 63.915 539.199 63.915C537.566 63.915 536.242 65.2388 536.242 66.8718C536.242 68.5047 537.566 69.8285 539.199 69.8285Z" fill="white"/>
<path d="M361.604 178.789C361.227 178.789 359.339 178.6 356.446 177.845L356.886 176.021C359.717 176.713 361.541 176.902 361.793 176.902L362.422 177.153L361.101 178.475L361.793 177.783L361.604 178.789ZM349.085 175.455C346.695 174.448 344.43 173.253 342.228 171.932L343.235 170.359C345.311 171.68 347.512 172.813 349.777 173.756L349.085 175.455ZM336.126 167.277C334.238 165.578 332.414 163.691 330.841 161.678L332.288 160.482C333.798 162.433 335.497 164.194 337.321 165.83L336.126 167.277ZM326.564 155.324C325.368 153.122 324.299 150.794 323.355 148.341L325.117 147.649C325.997 149.977 327.067 152.241 328.199 154.38L326.564 155.324ZM321.153 141.043C320.587 138.653 320.147 136.136 319.832 133.494L321.72 133.243C322.034 135.759 322.474 138.212 322.978 140.54L321.153 141.043ZM319.266 125.882C319.266 125.379 319.266 124.876 319.203 124.372C319.203 123.932 319.203 123.555 319.203 123.114C319.203 121.479 319.266 119.843 319.329 118.27L321.216 118.396C321.153 119.969 321.09 121.604 321.09 123.177C321.09 123.618 321.09 123.995 321.09 124.435C321.09 124.939 321.09 125.442 321.153 125.882H319.266ZM321.971 110.973L320.084 110.721C320.461 108.205 320.902 105.688 321.468 103.235L323.292 103.675C322.789 106.066 322.349 108.519 321.971 110.973ZM325.305 96.3777L323.481 95.8115C324.236 93.421 325.054 91.0304 325.997 88.6399L327.759 89.3319C326.878 91.6595 325.997 94.0501 325.305 96.3777ZM330.778 82.4748L329.08 81.6569C330.149 79.3922 331.345 77.1274 332.603 74.9256L334.238 75.8693C332.98 78.0082 331.848 80.2729 330.778 82.4748ZM338.076 69.3896L336.503 68.383C337.887 66.2441 339.334 64.1681 340.844 62.0921L342.354 63.2245C340.844 65.2376 339.397 67.3136 338.076 69.3896ZM346.946 57.311L345.499 56.1157C348.519 52.467 350.595 50.5168 350.658 50.4539L351.979 51.8379C351.916 51.7749 349.903 53.7881 346.946 57.311Z" fill="#57586B"/>
<path d="M357.135 184.955L356.191 183.319L365.187 178.223L359.022 169.605L360.595 168.535L367.893 178.79L357.135 184.955Z" fill="#57586B"/>
<path d="M543.785 56.7452C551.081 56.7452 556.996 50.8304 556.996 43.5342C556.996 36.238 551.081 30.3232 543.785 30.3232C536.489 30.3232 530.574 36.238 530.574 43.5342C530.574 50.8304 536.489 56.7452 543.785 56.7452Z" fill="#62A824"/>
<path d="M540.957 49.95L535.924 44.9172C535.421 44.4139 535.421 43.659 535.924 43.1558C536.428 42.6525 537.183 42.6525 537.686 43.1558L540.957 46.427L549.89 37.4939C550.394 36.9906 551.148 36.9906 551.652 37.4939C552.155 37.9972 552.155 38.7521 551.652 39.2554L540.957 49.95Z" fill="white"/>
</svg>
